<svg width="40" height="52" fill="none" xmlns="http://www.w3.org/2000/svg"><path fill-rule="evenodd" clip-rule="evenodd" d="M17.1136 2.93452h-.1366c-.2099-.01271-.4199-.0178-.6299-.02289h-.4553c-.3972 0-.802.01018-1.2042.03052a.62534.62534 0 0 0-.091 0c-3.6444.20648-7.21489 1.11736-10.51611 2.68277l-.43259.20852V27.9746l1.01189-.3433c.88794-.3052 1.83405-.5798 2.81306-.8341a34.32824 34.32824 0 0 1 8.09515-1.0756v2.909c-.3618.0026-.7134.0128-1.065.0306h-.0835c-2.102.1153-4.1878.4355-6.22821.9561-2.58413.647-5.07696 1.6184-7.41968 2.8913V4.11189C3.20469 2.69275 5.82533 1.62687 8.55557.94596A29.79311 29.79311 0 0 1 15.8918 0h.4275c.511.01271 1.0094.0356 1.4774.0712a21.09089 21.09089 0 0 1 3.6554.58233v2.86332a22.62272 22.62272 0 0 0-3.5416-.53401l-.0726-.00618c-.2468-.02105-.4939-.04214-.7243-.04214Zm5.0392 2.92686c.6349.04832 1.2927.07121 1.958.07121a31.46724 31.46724 0 0 0 7.7131-.9892c2.5829-.64943 5.0747-1.62161 7.4172-2.89383V29.9402c-2.4344 1.4183-5.0558 2.4841-7.7865 3.1659a29.9427 29.9427 0 0 1-7.3362.9435 22.4048 22.4048 0 0 1-5.5654-.6561V5.32229c.43.09917.8727.19072 1.323.267.7387.12461 1.5179.21615 2.2768.27209Zm14.1943.21615-1.0119.34075c-.931.31278-1.8695.5925-2.8131.8417a34.2628 34.2628 0 0 1-8.4063 1.0782c-.6602 0-1.2673-.0178-1.8542-.05594l-.807-.05341V31.0057l.6931.061c.6426.056 1.3054.0839 1.9732.0839 2.2335-.0094 4.4572-.2973 6.6203-.8569a27.76376 27.76376 0 0 0 5.1733-1.8589l.4326-.2085V6.07753Z" fill="#AFB1B8"/><path d="M2.73713 42.2124a1.49165 1.49165 0 0 0-.51477-.3478 1.48576 1.48576 0 0 0-.61095-.1074 1.67257 1.67257 0 0 0-.65014.1221 1.50101 1.50101 0 0 0-.50595.3331 1.46269 1.46269 0 0 0-.32633.5086 1.65031 1.65031 0 0 0-.11637.6281v3.794a1.7881 1.7881 0 0 0 .14925.7781c.08956.1944.21885.3677.37946.5086a1.3291 1.3291 0 0 0 .52113.2696c.18448.0518.37509.0783.56665.0788.2113.0021.42042-.0431.6122-.1322a1.59872 1.59872 0 0 0 .50594-.351 1.64787 1.64787 0 0 0 .3314-.5086 1.5323 1.5323 0 0 0 .12142-.6052v-.4246h-.99165v.3382a.88126.88126 0 0 1-.05818.3382.60847.60847 0 0 1-.1442.2136.6054.6054 0 0 1-.20743.1093.69726.69726 0 0 1-.20744.0356.50288.50288 0 0 1-.25995-.0388.50622.50622 0 0 1-.20552-.1646.89868.89868 0 0 1-.13155-.5086v-3.5372a1.20784 1.20784 0 0 1 .12143-.567.50693.50693 0 0 1 .2102-.1845.50288.50288 0 0 1 .27551-.0444.52696.52696 0 0 1 .24751.052.5297.5297 0 0 1 .19519.1616.80647.80647 0 0 1 .16443.5086v.328h.98153v-.3865a1.78812 1.78812 0 0 0-.12142-.6637 1.5619 1.5619 0 0 0-.3314-.534ZM8.62892 42.1691c-.31621-.267-.7153-.4145-1.12826-.417a1.73395 1.73395 0 0 0-.59196.1068 1.60692 1.60692 0 0 0-.52365.3102 1.55895 1.55895 0 0 0-.38452.5315 1.77016 1.77016 0 0 0-.14419.7349v3.6389c-.00684.256.04239.5103.14419.7451.08975.1956.22099.3692.38452.5085a1.5504 1.5504 0 0 0 .52365.3205c.18968.0698.38998.1059.59196.1068a1.71423 1.71423 0 0 0 .59196-.1068 1.65673 1.65673 0 0 0 .5363-.3205 1.55317 1.55317 0 0 0 .3744-.5085 1.75524 1.75524 0 0 0 .14419-.7451v-3.6389a1.77016 1.77016 0 0 0-.14419-.7349 1.64324 1.64324 0 0 0-.3744-.5315Zm-.46294 4.9053a.65394.65394 0 0 1-.03918.2857.65202.65202 0 0 1-.15814.2407.72651.72651 0 0 1-.46673.17.72654.72654 0 0 1-.46674-.17.65202.65202 0 0 1-.15814-.2407.65408.65408 0 0 1-.03918-.2857v-3.6389a.65408.65408 0 0 1 .03918-.2857.65121.65121 0 0 1 .15814-.2407.72654.72654 0 0 1 .46674-.17.72651.72651 0 0 1 .46673.17.65121.65121 0 0 1 .15814.2407.65394.65394 0 0 1 .03918.2857v3.6389ZM16.3673 48.6994v-6.8887h-.9537l-1.2522 3.6465h-.0177l-1.2624-3.6465h-.9436v6.8887h.9841v-4.1907h.0177l.9638 2.9625h.4908l.9714-2.9625h.0177v4.1907h.9841ZM21.9581 42.2937c-.1516-.17-.3428-.2994-.5566-.3764a2.18377 2.18377 0 0 0-.7134-.1068H19.226v6.8888h.9815v-2.6904h.5059c.3063.0139.611-.0509.8854-.1882.2232-.1239.4093-.3057.5389-.5264.1135-.1832.19-.3872.2251-.6001.0386-.2592.0564-.5212.0531-.7832a3.92308 3.92308 0 0 0-.0961-.9841c-.0655-.2384-.1899-.4563-.3617-.6332Zm-.506 2.1004a.86672.86672 0 0 1-.0911.3586c-.0561.1059-.1448.1907-.2529.2415-.1454.0651-.304.0947-.463.0865h-.4477v-2.342h.5059a.94224.94224 0 0 1 .4427.0864.55623.55623 0 0 1 .2302.2543c.0537.121.0829.2516.086.384v.4577c0 .1602.0101.3255 0 .473h-.0101ZM26.6077 41.8107h-.8045l-1.5178 6.8887h.9815l.2884-1.48h1.3382l.2884 1.48h.9816l-1.5558-6.8887Zm-.9057 4.4704.4832-2.4971h.0177l.4807 2.4971h-.9816ZM32.9497 45.9607h-.0177l-1.4824-4.15h-.9436v6.8887h.9815V44.557h.0203l1.5001 4.1424h.9233v-6.8887h-.9815v4.15ZM38.9476 41.8107l-.7893 2.7387h-.0202l-.7893-2.7387h-1.0397l1.3483 3.9771v2.9116h.9816v-2.9116l1.3483-3.9771h-1.0397ZM0 50.6445h.47306v1.3274h.32127v-1.3274h.47053v-.2721H0v.2721ZM3.97672 50.3724l-.61979 1.5995h.34152l.13154-.3636h.63749l.13661.3636h.3491l-.63496-1.5995h-.34151Zm-.0506.9663.21756-.5925.21755.5925h-.43511ZM7.90793 51.3821h.36934v.206a.61275.61275 0 0 1-.37946.1348.40368.40368 0 0 1-.18793-.0349.40549.40549 0 0 1-.15105-.1177.66879.66879 0 0 1-.1189-.417c0-.356.15431-.534.46041-.534a.33749.33749 0 0 1 .2277.0598.34062.34062 0 0 1 .13405.1944l.31622-.061c-.0683-.3128-.29345-.4704-.67797-.4704-.20566-.0055-.40564.0682-.55907.206a.78023.78023 0 0 0-.18269.2821.78431.78431 0 0 0-.04751.3332c-.00932.2189.06386.4332.20491.6002a.77612.77612 0 0 0 .27803.1839.77318.77318 0 0 0 .3291.05c.25027.007.49341-.0842.67797-.2543v-.6306h-.69315v.2695ZM11.9226 50.3724h-.3238v1.5995h1.1206v-.2721h-.7968v-1.3274ZM15.3175 50.3724h-.3238v1.5995h.3238v-1.5995ZM18.6365 51.4405l-.6552-1.0681h-.3137v1.5995h.301v-1.0451l.6426 1.0451h.3213v-1.5995h-.296v1.0681ZM21.6368 51.2675h.7969v-.2721h-.7969v-.3509h.8576v-.2721H21.313v1.5995h1.2143v-.2721h-.8905v-.4323ZM28.9122 51.0031h-.6299v-.6307h-.3212v1.5995h.3212v-.6993h.6299v.6993h.3213v-1.5995h-.3213v.6307ZM31.9302 51.2675h.7994v-.2721h-.7994v-.3509h.8601v-.2721h-1.1814v1.5995h1.2117v-.2721h-.8904v-.4323ZM36.0233 51.2676c.2782-.0432.4199-.1907.4199-.445a.38278.38278 0 0 0-.0298-.1996.38042.38042 0 0 0-.1271-.1564.90378.90378 0 0 0-.468-.0941h-.6779v1.5995h.3213v-.6688h.0632c.0685-.0042.137.008.1998.0356.047.029.0861.0691.1139.117l.3491.5086h.3845l-.1948-.3128a1.1151 1.1151 0 0 0-.3541-.384Zm-.3239-.2212h-.2377v-.4018h.2529a.83986.83986 0 0 1 .3264.0381.2093.2093 0 0 1 .054.0752c.0122.0288.0177.06.0163.0913a.20987.20987 0 0 1-.0247.0893.20798.20798 0 0 1-.0608.0697.9127.9127 0 0 1-.3264.0382ZM39.1096 51.2675h.7968v-.2721h-.7968v-.3509h.8601v-.2721h-1.1839v1.5995H40v-.2721h-.8904v-.4323Z" fill="#AFB1B8"/></svg>