<svg width="85" height="42" fill="none" xmlns="http://www.w3.org/2000/svg"><path d="M13.1433 13.6028h.0029c2.179 0 3.842 1.5576 3.842 3.3587v.0025c0 1.8011-1.663 3.3587-3.842 3.3587h-.0029c-2.179 0-3.84203-1.5576-3.84203-3.3587v-.0025c0-1.8011 1.66303-3.3587 3.84203-3.3587ZM21.0702 27.5629a41.1491 41.1491 0 0 1-.5115.0677V11.8699c.0066-2.80819 1.2645-5.51341 3.5218-7.51896 2.2591-2.00719 5.3323-3.14558 8.5491-3.15099 3.2159.0067 6.2877 1.14566 8.5456 3.1527 2.256 2.00535 3.5131 4.70973 3.5198 7.51695V11.8718c-.0007 3.2868-1.4878 5.9106-3.7681 8.0185-2.2898 2.1166-5.3645 3.6964-8.4763 4.8606-3.1068 1.1624-6.2191 1.8991-8.5584 2.3452-1.1686.2229-2.1419.3728-2.822.4668ZM11.534 33.5484c-.0003-.5151-.1726-1.0127-.4863-1.43-.3132-.4166-.752-.7332-1.25452-.9182-.50244-.185-1.05254-.2327-1.58276-.139-.53024.0938-1.02441.3262-1.41752.6756-.3937.3499-.6698.8031-.78245 1.3065-.11283.5041-.05419 1.0258.16504 1.4961.21871.4693.58439.8607 1.04125 1.132.31426.1866.664.312 1.02744.3721v.0486h.5c.35955 0 .71669-.0631 1.05139-.1866.33473-.1235.64223-.3059.90363-.539.2615-.2333.4722-.5134.6168-.8261.1445-.3126.2193-.6499.218-.992Zm0 0v-.001l-.5.0021h.5v-.0011Zm5.2714-10.7656c.0649-.0089.126-.0172.183-.0247v10.7928c-.0065 1.9067-.8612 3.7474-2.4008 5.1157-1.5414 1.3698-3.6413 2.1504-5.84342 2.1565-2.20261-.0061-4.30292-.787-5.84436-2.1574C1.36016 37.297.50581 35.4557.5 33.5487c.00022-2.234 1.00889-4.021 2.57196-5.466 1.57262-1.4537 3.69148-2.5444 5.84744-3.3511 2.151-.8048 4.3076-1.3156 5.9301-1.6251.8102-.1546 1.4849-.2585 1.9559-.3237Z" fill="#AFB1B8" stroke="#AFB1B8"/><path d="M24.7302 31.9413v4.2656h-.8789v-4.2656h.8789Zm1.6992 1.8222v.6856h-1.9395v-.6856h1.9395Zm.2051-1.8222v.6885h-2.1446v-.6885h2.1446Zm4.0136 2.0332v.2021c0 .3243-.0439.6153-.1318.8731-.0879.2578-.2119.4775-.3721.6592-.1601.1796-.3515.3173-.5742.413-.2207.0958-.4658.1436-.7353.1436-.2676 0-.5127-.0478-.7354-.1436-.2207-.0957-.4121-.2334-.5742-.413-.1621-.1817-.2881-.4014-.3779-.6592-.0879-.2578-.1319-.5488-.1319-.8731v-.2021c0-.3262.044-.6172.1319-.8731.0878-.2578.2119-.4775.372-.6591.1621-.1817.3535-.3204.5742-.4161.2227-.0957.4678-.1435.7354-.1435.2695 0 .5146.0478.7353.1435.2227.0957.4141.2344.5743.4161.1621.1816.2871.4013.375.6591.0898.2559.1347.5469.1347.8731Zm-.8877.2021v-.208c0-.2265-.0205-.4258-.0615-.5976-.041-.1719-.1015-.3164-.1816-.4336-.0801-.1172-.1778-.2051-.293-.2637-.1152-.0605-.2471-.0908-.3955-.0908-.1484 0-.2803.0303-.3955.0908-.1133.0586-.21.1465-.2901.2637-.0781.1172-.1376.2617-.1787.4336-.041.1718-.0615.3711-.0615.5976v.208c0 .2246.0205.4239.0615.5977.0411.1719.1016.3174.1817.4365.0801.1172.1777.2061.2929.2666.1153.0606.2471.0908.3956.0908.1484 0 .2802-.0302.3955-.0908.1152-.0605.2119-.1494.29-.2666.0781-.1191.1377-.2646.1787-.4365.041-.1738.0615-.3731.0615-.5977Zm3.7412.9141c0-.0762-.0117-.1445-.0351-.2051-.0215-.0625-.0625-.1191-.1231-.1699-.0605-.0527-.1455-.1045-.2548-.1553-.1094-.0508-.251-.1035-.4248-.1582-.1934-.0625-.377-.1328-.5508-.2109-.1719-.0781-.3242-.169-.4571-.2725-.1308-.1054-.2343-.2275-.3105-.3662-.0742-.1387-.1113-.2998-.1113-.4834 0-.1777.039-.3389.1172-.4834.0781-.1465.1875-.2715.3281-.375.1406-.1055.3066-.1865.498-.2431.1934-.0567.4053-.085.6358-.085.3144 0 .5888.0566.8232.1699.2344.1133.416.2686.5449.4658.1309.1973.1963.4229.1963.6768h-.873c0-.125-.0264-.2344-.0791-.3281-.0508-.0957-.1289-.1709-.2344-.2256-.1035-.0547-.2344-.0821-.3926-.0821-.1523 0-.2793.0235-.3808.0704-.1016.0449-.1778.1064-.2286.1845-.0507.0762-.0761.1621-.0761.2578 0 .0723.0176.1377.0527.1963.0371.0586.0918.1133.1641.1641.0722.0508.1611.0986.2666.1435.1054.045.2275.0889.3662.1319.2324.0703.4365.1494.6123.2373.1777.0879.3262.1865.4453.2959.1191.1094.209.2334.2695.3721.0606.1386.0909.2959.0909.4716 0 .1856-.0362.3516-.1084.4981-.0723.1465-.1768.2705-.3135.3721-.1367.1015-.2998.1787-.4893.2314-.1894.0527-.4013.0791-.6357.0791-.211 0-.419-.0273-.624-.082-.2051-.0567-.3916-.1416-.5596-.2549-.166-.1133-.2988-.2578-.3985-.4336-.0996-.1758-.1494-.3838-.1494-.624h.8819c0 .1328.0205.2451.0615.3369.041.0918.0986.166.1728.2226.0762.0567.1661.0977.2696.1231.1054.0254.2207.0381.3457.0381.1523 0 .2773-.0215.375-.0645.0996-.0429.1728-.1025.2197-.1787.0488-.0762.0732-.1621.0732-.2578Zm3.3838-3.1494v4.2656h-.8759v-4.2656h.8759Zm1.3125 0v.6885h-3.4804v-.6885h3.4804Zm3.3633 3.5801v.6855h-2.2705v-.6855h2.2705Zm-1.9834-3.5801v4.2656h-.8789v-4.2656h.8789Zm1.6875 1.7373v.668h-1.9746v-.668h1.9746Zm.293-1.7373v.6885h-2.2676v-.6885h2.2676Zm.5156 0h1.5908c.3262 0 .6065.0488.8409.1465.2363.0976.4179.2422.5449.4336.1269.1914.1904.4267.1904.706 0 .2285-.0391.4248-.1172.5889-.0762.1621-.1846.2978-.3252.4072-.1386.1074-.3017.1934-.4892.2578l-.2784.1465h-1.3828l-.0058-.6855h1.0283c.1543 0 .2822-.0274.3838-.0821.1015-.0547.1777-.1308.2285-.2285.0527-.0976.0791-.2109.0791-.3398 0-.1367-.0254-.2549-.0762-.3545-.0508-.0996-.1279-.1758-.2314-.2285-.1035-.0528-.2334-.0791-.3897-.0791h-.7119v3.5771h-.8789v-4.2656Zm2.3848 4.2656-.9727-1.9014.9287-.0058.9844 1.8662v.041h-.9404Zm4.6142-1.5205H47.986v-.6855h1.0869c.168 0 .3047-.0274.4102-.0821.1055-.0566.1826-.1347.2314-.2344.0489-.0996.0733-.2119.0733-.3369 0-.1269-.0244-.2451-.0733-.3545-.0488-.1093-.1259-.1972-.2314-.2636-.1055-.0664-.2422-.0996-.4102-.0996h-.7822v3.5771h-.8789v-4.2656h1.6611c.334 0 .6202.0605.8584.1816.2403.1192.4239.2842.5508.4951.127.211.1904.4522.1904.7237 0 .2754-.0634.5136-.1904.7148-.1269.2012-.3105.3565-.5508.4658-.2382.1094-.5244.1641-.8584.1641Zm5.0684.835v.6855h-2.2705v-.6855h2.2705Zm-1.9834-3.5801v4.2656h-.8789v-4.2656h.8789Zm1.6875 1.7373v.668h-1.9746v-.668h1.9746Zm.293-1.7373v.6885h-2.2676v-.6885h2.2676Zm2.4814 0v4.2656h-.876v-4.2656h.876Zm1.3125 0v.6885h-3.4805v-.6885h3.4805Zm3.3633 3.5801v.6855h-2.2705v-.6855h2.2705Zm-1.9834-3.5801v4.2656h-.8789v-4.2656h.8789Zm1.6875 1.7373v.668h-1.9746v-.668h1.9746Zm.293-1.7373v.6885h-2.2676v-.6885h2.2676Zm.5156 0h1.5908c.3262 0 .6065.0488.8408.1465.2364.0976.418.2422.545.4336.1269.1914.1904.4267.1904.706 0 .2285-.0391.4248-.1172.5889-.0762.1621-.1846.2978-.3252.4072-.1387.1074-.3018.1934-.4893.2578l-.2783.1465h-1.3828l-.0059-.6855h1.0284c.1543 0 .2822-.0274.3838-.0821.1015-.0547.1777-.1308.2285-.2285.0527-.0976.0791-.2109.0791-.3398 0-.1367-.0254-.2549-.0762-.3545-.0508-.0996-.1279-.1758-.2314-.2285-.1036-.0528-.2334-.0791-.3897-.0791h-.7119v3.5771h-.8789v-4.2656Zm2.3848 4.2656-.9727-1.9014.9287-.0058.9844 1.8662v.041h-.9404Zm3.6796-1.1162c0-.0762-.0117-.1445-.0351-.2051-.0215-.0625-.0625-.1191-.1231-.1699-.0605-.0527-.1455-.1045-.2548-.1553-.1094-.0508-.251-.1035-.4248-.1582-.1934-.0625-.377-.1328-.5508-.2109-.1719-.0781-.3242-.169-.4571-.2725-.1308-.1054-.2343-.2275-.3105-.3662-.0742-.1387-.1113-.2998-.1113-.4834 0-.1777.039-.3389.1172-.4834.0781-.1465.1875-.2715.3281-.375.1406-.1055.3066-.1865.498-.2431.1934-.0567.4053-.085.6358-.085.3144 0 .5888.0566.8232.1699.2344.1133.416.2686.5449.4658.1309.1973.1963.4229.1963.6768h-.873c0-.125-.0264-.2344-.0791-.3281-.0508-.0957-.1289-.1709-.2344-.2256-.1035-.0547-.2344-.0821-.3926-.0821-.1523 0-.2793.0235-.3808.0704-.1016.0449-.1778.1064-.2286.1845-.0507.0762-.0761.1621-.0761.2578 0 .0723.0175.1377.0527.1963.0371.0586.0918.1133.1641.1641.0722.0508.1611.0986.2666.1435.1054.045.2275.0889.3662.1319.2324.0703.4365.1494.6123.2373.1777.0879.3262.1865.4453.2959.1191.1094.209.2334.2695.3721.0606.1386.0908.2959.0908.4716 0 .1856-.0361.3516-.1084.4981-.0722.1465-.1767.2705-.3134.3721-.1367.1015-.2998.1787-.4893.2314-.1894.0527-.4014.0791-.6357.0791-.211 0-.419-.0273-.6241-.082-.205-.0567-.3916-.1416-.5595-.2549-.166-.1133-.2988-.2578-.3985-.4336-.0996-.1758-.1494-.3838-.1494-.624h.8819c0 .1328.0205.2451.0615.3369.041.0918.0986.166.1728.2226.0762.0567.1661.0977.2696.1231.1054.0254.2207.0381.3457.0381.1523 0 .2773-.0215.375-.0645.0996-.0429.1728-.1025.2197-.1787.0488-.0762.0732-.1621.0732-.2578Z" fill="#AFB1B8"/><path d="M24.7302 31.9413h1v-1h-1v1Zm0 4.2656v1h1v-1h-1Zm-.8789 0h-1v1h1v-1Zm0-4.2656v-1h-1v1h1Zm2.5781 1.8222h1v-1h-1v1Zm0 .6856v1h1v-1h-1Zm-1.9395 0h-1v1h1v-1Zm0-.6856v-1h-1v1h1Zm2.1446-1.8222h1v-1h-1v1Zm0 .6885v1h1v-1h-1Zm-2.1446 0h-1v1h1v-1Zm0-.6885v-1h-1v1h1Zm-.7597 0v4.2656h2v-4.2656h-2Zm1 3.2656h-.8789v2h.8789v-2Zm.1211 1v-4.2656h-2v4.2656h2Zm-1-3.2656h.8789v-2h-.8789v2Zm1.5781.8222v.6856h2v-.6856h-2Zm1-.3144h-1.9395v2h1.9395v-2Zm-.9395 1v-.6856h-2v.6856h2Zm-1 .3144h1.9395v-2h-1.9395v2Zm1.1446-2.8222v.6885h2v-.6885h-2Zm1-.3115h-2.1446v2h2.1446v-2Zm-1.1446 1v-.6885h-2v.6885h2Zm-1 .3115h2.1446v-2h-2.1446v2Zm5.6543 2.7676.7466.6653.0035-.004-.7501-.6613Zm-.5742.413-.3949-.9187-.0029.0013.3978.9174Zm-1.4707 0-.3978.9175.0029.0013.3949-.9188Zm-.5742-.413-.7461.6658.0036.004.7425-.6698Zm-.3779-.6592-.9466.3227.0023.0064.9443-.3291Zm0-1.9483.9457.3249.0008-.0022-.9465-.3227Zm.372-.6591-.7461-.6659-.0039.0045.75.6614Zm.5742-.4161-.3948-.9187-.003.0013.3978.9174Zm1.4707 0-.3978.9175.003.0013.3948-.9188Zm.5743.4161-.7501.6613.004.0045.7461-.6658Zm.375.6591-.9466.3227.003.0087.9436-.3314Zm-1.2891-.4277-.4652.8853.012.0061.4532-.8914Zm-.791 0 .4594.8882.0057-.003-.4651-.8852Zm-.2901.2637-.8256-.5642-.0064.0095.832.5547Zm-.1787 1.8369-.9732.2296.0006.0025.9726-.2321Zm.1817.4365-.83.5579.0043.0063.8257-.5642Zm1.374 0 .8321.5547.0041-.0063-.8362-.5484Zm.1787-.4365.9727.2321.0006-.0025-.9733-.2296Zm-.0508-.7998v.2021h2v-.2021h-2Zm0 .2021c0 .2348-.0318.4141-.0783.5504l1.893.6454c.1293-.3794.1853-.7821.1853-1.1958h-2Zm-.0783.5504c-.0507.1486-.1129.2493-.1756.3205l1.5001 1.3227c.2575-.2921.4434-.6308.5685-.9978l-1.893-.6454Zm-.1721.3165c-.0622.0698-.1333.1213-.2226.1597l.7898 1.8375c.356-.1531.6677-.3769.9258-.6665l-1.493-1.3307Zm-.2255.161c-.0809.035-.1884.061-.3375.061v2c.3898 0 .7726-.0697 1.1331-.2261l-.7956-1.8349Zm-.3375.061c-.146 0-.255-.0255-.3405-.0623l-.7898 1.8375c.3598.1546.7411.2248 1.1303.2248v-2Zm-.3376-.061c-.0886-.0384-.1627-.0914-.2295-.1655l-1.485 1.3397c.2574.2853.5661.5077.9189.6607l.7956-1.8349Zm-.2259-.1615c-.0645-.0723-.1279-.1737-.1797-.3224l-1.8886.6582c.1278.3669.3164.7049.5761.9959l1.4922-1.3317Zm-.1775-.316c-.0465-.1363-.0784-.3156-.0784-.5504h-2c0 .4137.056.8164.1853 1.1958l1.8931-.6454Zm-.0784-.5504v-.2021h-2v.2021h2Zm0-.2021c0-.2377.0322-.4158.0776-.5482l-1.8915-.6497c-.1303.3793-.1861.7832-.1861 1.1979h2Zm.0784-.5504c.0506-.1486.1128-.2493.1756-.3205l-1.5001-1.3227c-.2576.2921-.4434.6308-.5686.9979l1.8931.6453Zm.1716-.316c.0668-.0749.1399-.1271.226-.1644l-.7957-1.8349c-.3553.1541-.6651.3792-.9225.6676l1.4922 1.3317Zm.223-.1631c.0855-.0368.1945-.0623.3405-.0623v-2c-.3892 0-.7704.0702-1.1302.2248l.7897 1.8375Zm.3405-.0623c.1492 0 .2567.026.3375.061l.7957-1.8349c-.3606-.1564-.7433-.2261-1.1332-.2261v2Zm.3405.0623c.0867.0373.1568.0881.219.1586l1.5001-1.3227c-.2581-.2927-.5708-.5193-.9294-.6734l-.7897 1.8375Zm.223.1631c.063.0706.1247.1698.1746.316l1.893-.6453c-.126-.3694-.3142-.7097-.5755-1.0024l-1.4921 1.3317Zm.1775.3247c.0458.1302.0783.3061.0783.5417h2c0-.4168-.0573-.8229-.1912-1.2044l-1.8871.6627Zm1.1906.7438v-.208h-2v.208h2Zm0-.208c0-.284-.0254-.564-.0888-.8297l-1.9454.4642c.0186.078.0342.1964.0342.3655h2Zm-.0888-.8297c-.0627-.2626-.1652-.5264-.3287-.7657l-1.6513 1.1284c-.0033-.005.0153.0203.0346.1015l1.9454-.4642Zm-.3287-.7657c-.1653-.2419-.3862-.4489-.6653-.5909l-.9065 1.7828c-.0218-.0111-.0409-.0245-.0561-.0382-.0149-.0134-.0221-.0234-.0234-.0253l1.6513-1.1284Zm-.6535-.5847c-.2777-.146-.5731-.2056-.8606-.2056v2c.0061 0 .0006.0006-.0136-.0027-.0147-.0034-.0345-.0099-.056-.0213l.9302-1.7704Zm-.8606-.2056c-.2876 0-.5829.0596-.8606.2056l.9302 1.7704c-.0216.0114-.0413.0179-.056.0213-.0142.0033-.0197.0027-.0136.0027v-2Zm-.8549.2026c-.2763.1429-.4936.3495-.6563.5877l1.6513 1.1284c-.0002.0002-.0064.0091-.0204.0219-.0144.0131-.0333.0268-.0558.0384l-.9188-1.7764Zm-.6627.5972c-.158.237-.2576.4974-.3193.7562l1.9453.4642c.0203-.085.0399-.1137.0381-.111l-1.6641-1.1094Zm-.3193.7562c-.0635.2657-.0889.5457-.0889.8297h2c0-.1691.0156-.2875.0342-.3655l-1.9453-.4642Zm-.0889.8297v.208h2v-.208h-2Zm0 .208c0 .2831.0256.5619.0883.8273l1.9465-.4593c-.0194-.0822-.0348-.2018-.0348-.368h-2Zm.0889.8298c.0625.2622.1642.524.3243.7623l1.6599-1.1157c.0001.0001-.0047-.0071-.0121-.0248-.0075-.018-.0172-.0459-.0268-.086l-1.9453.4642Zm.3286.7686c.1637.2396.3809.4444.6535.5877l.9303-1.7705c.0186.0098.0351.0216.0482.0336.0128.0116.0187.02.0193.0208l-1.6513 1.1284Zm.6535.5877c.2777.1459.5731.2055.8607.2055v-2c-.0062 0-.0007-.0006.0136.0027.0147.0034.0344.0099.056.0213l-.9303 1.7705Zm.8607.2055c.2875 0 .5829-.0596.8606-.2055l-.9303-1.7705c.0216-.0114.0413-.0179.0561-.0213.0142-.0033.0197-.0027.0136-.0027v2Zm.8606-.2055c.2752-.1447.4939-.3526.657-.5972l-1.6641-1.1094c.002-.0031.0096-.0136.0242-.027a.25411.25411 0 0 1 .0526-.0369l.9303 1.7705Zm.6611-.6035c.1548-.236.2535-.4944.3152-.7528l-1.9454-.4642c-.0203.0853-.0407.1179-.0422.1203l1.6724 1.0967Zm.3158-.7553c.0626-.2654.0882-.5442.0882-.8273h-2c0 .1662-.0154.2858-.0348.368l1.9466.4593Zm2.7943-.1183-.9457.3251.0062.0181.0069.0178.9326-.361Zm-.1231-.1699-.6567.7541.007.0061.0071.006.6426-.7662Zm-.6796-.3135-.3076.9516.0075.0023.3001-.9539Zm-.5508-.2109-.4138.9104.0038.0017.41-.9121Zm-.4571-.2725-.6275.7786.0064.0051.0064.0051.6147-.7888Zm-.3105-.3662-.8817.4719.0052.0096.8765-.4815Zm.0059-.9668.8797.4755.0026-.0049-.8823-.4706Zm.3281-.375.5928.8054.0072-.0054-.6-.8Zm.498-.2431-.2811-.9597-.0026.0008.2837.9589Zm2.0039.5507-.8371.5471.0038.0057.8333-.5528Zm.1963.6768v1h1v-1h-1Zm-.873 0h-1v1h1v-1Zm-.0791-.3281-.8834.4687.0058.0108.006.0107.8716-.4902Zm-.2344-.2256-.4671.8842.0068.0035.4603-.8877Zm-.7734-.0117.4045.9145.0073-.0032.0072-.0034-.419-.9079Zm-.2286.1845.8322.5548.0063-.0098-.8385-.545Zm-.0234.4541-.8575.5145.0062.0104.0065.0102.8448-.5351Zm.7969.4395-.296.9552.0064.0019.2896-.9571Zm.6123.2373-.4472.8944.0039.002.4433-.8964Zm-1.3652 2.2383-.2663.9639.0086.0023.2577-.9662Zm-.5596-.2549-.5637.826.0045.0031.5592-.8291Zm-.5479-1.0576v-1h-1v1h1Zm.8819 0h1v-1h-1v1Zm.2343.5595-.6067.7951.01.0074.5967-.8025Zm.2696.1231-.2382.9712.0041.001.2341-.9722Zm.7207-.0264-.3961-.9182-.0067.0029.4028.9153Zm.2197-.1787-.8419-.5397-.0049.0078-.0049.0078.8517.5241Zm1.0732-.2578c0-.1786-.0275-.3723-.1025-.5661l-1.8652.722c-.0281-.0727-.0323-.1296-.0323-.1559h2Zm-.0894-.5302c-.0912-.2652-.2538-.4664-.4261-.611l-1.2853 1.5324c-.0512-.043-.1318-.1309-.18-.2712l1.8914-.6502Zm-.412-.5989c-.1575-.1372-.334-.2355-.4905-.3082l-.8422 1.814a.82973.82973 0 0 1 .0319.0157c.0079.0042.0127.007.0147.0082.002.0013.0004.0004-.0039-.0027-.0044-.0031-.0126-.0093-.0235-.0188l1.3135-1.5082Zm-.4905-.3082c-.1631-.0757-.3493-.1432-.5458-.2051l-.6002 1.9078c.1511.0476.2481.0855.3038.1113l.8422-1.814Zm-.5384-.2027c-.1608-.052-.31-.1094-.4484-.1715l-.8199 1.8242c.2094.0941.4273.1773.6532.2503l.6151-1.903Zm-.4445-.1698c-.1089-.0495-.1922-.101-.2561-.1508l-1.2295 1.5775c.2017.1572.4231.2873.658.3941l.8276-1.8208Zm-.2433-.1407c-.0357-.0287-.0521-.0517-.0616-.069l-1.753.9629c.1428.26.3335.4812.5595.6633l1.2551-1.5572Zm-.0564-.0595c.0031.006.0055.0113.007.0156.0016.0042.0022.0068.0023.007.0001.0006-.0023-.0096-.0023-.0341h-2c0 .3206.0657.6489.2296.9553l1.7634-.9438Zm.007-.0115c0-.0152.0016-.0204.0011-.0185-.0002.0007-.0006.0024-.0015.0046a.04269.04269 0 0 1-.0027.006l-1.7594-.951c-.1635.3024-.2375.6291-.2375.9589h2Zm-.0005-.0128c.0042-.0078.0119-.0206.0386-.0402l-1.1856-1.6107c-.2546.1873-.4656.4246-.6177.7097l1.7647.9412Zm.0458-.0456c.0335-.0251.0891-.0568.1818-.0843l-.5675-1.9177c-.2902.0858-.5666.2162-.8143.402l1.2 1.6Zm.1791-.0835c.0901-.0263.2059-.0446.3547-.0446v-2c-.3122 0-.6202.0384-.9169.1253l.5622 1.9193Zm.3547-.0446c.1946 0 .3147.0348.388.0703l.8704-1.8007c-.3954-.1911-.8241-.2696-1.2584-.2696v2Zm.388.0703c.0885.0427.1237.0829.143.1125l1.6743-1.0941c-.2385-.365-.5666-.6353-.9469-.8191l-.8704 1.8007Zm.1468.1182c.0142.0214.0296.0518.0296.124h2c0-.4356-.1154-.8564-.3629-1.2296l-1.6667 1.1056Zm1.0296-.876h-.873v2h.873v-2Zm.127 1c0-.2687-.0578-.5523-.2075-.8184l-1.7432.9805c-.0442-.0786-.0493-.1435-.0493-.1621h2Zm-.1958-.7969c-.1551-.2924-.3898-.5059-.6574-.6446l-.9206 1.7755c-.0245-.0127-.059-.0347-.0955-.0698a.4967.4967 0 0 1-.0932-.1236l1.7667-.9375Zm-.6506-.641c-.2891-.1527-.5933-.1979-.8597-.1979v2c.0225 0 .025.0021.0123-.0006-.0134-.0028-.0452-.0111-.0868-.0331l.9342-1.7684Zm-.8597-.1979c-.2476 0-.5285.0371-.7999.1624l.8381 1.8159c-.0355.0164-.0599.0216-.0661.0227-.006.0011.0021-.001.0279-.001v-2Zm-.7853.1558c-.2445.1081-.4871.2843-.6625.5541l1.6769 1.09c-.0738.1136-.1641.1667-.2054.185l-.809-1.8291Zm-.6561.5444c-.1654.2482-.2441.5289-.2441.8125h2c0 .0416-.0057.0921-.022.1472a.55105.55105 0 0 1-.0698.1497l-1.6641-1.1094Zm-.2441.8125c0 .2427.0614.4878.1952.7108l1.715-1.029c.0635.1059.0898.2201.0898.3182h-2Zm.2079.7314c.1239.1957.2822.3406.4339.4472l1.1499-1.6364c.0072.005.0561.0406.1058.1191l-1.6896 1.0701Zm.4339.4472c.1436.1009.2978.1807.4497.2454l.7837-1.8401c-.0284-.0121-.0491-.0223-.0635-.03-.0144-.0078-.0204-.012-.02-.0117l-1.1499 1.6364Zm.4497.2454c.1438.0612.299.1164.4621.167l.592-1.9104c-.1143-.0354-.2032-.0681-.2704-.0967l-.7837 1.8401Zm.4685.1689c.1903.0576.3397.1172.4547.1746l.8944-1.7888c-.2366-.1184-.4954-.217-.77-.3001l-.5791 1.9143Zm.4586.1766c.1113.055.1765.1033.2123.1361l1.3526-1.4733c-.2025-.1859-.4341-.3348-.6783-.4556l-.8866 1.7928Zm.2123.1361c.0237.0218.0284.0332.0294.0356l1.8329-.8003c-.1201-.275-.2951-.5116-.5097-.7086l-1.3526 1.4733Zm.0294.0356c-.0028-.0063.0073.0114.0073.0715h2c0-.2914-.0506-.5881-.1744-.8718l-1.8329.8003Zm.0073.0715c0 .0278-.0027.044-.0043.051-.0014.0067-.0023.0073-.001.0047l1.7937.8848c.1488-.3017.2116-.6224.2116-.9405h-2Zm-.0053.0557c-.0004.001-.0006.0012-.0005.001.0001-.0002.0002-.0002 0-.0001a.01652.01652 0 0 1-.0027.0028.1138.1138 0 0 1-.0097.008l1.1926 1.6055c.2584-.192.4685-.4375.614-.7324l-1.7937-.8848Zm-.0129.0117c-.0242.0179-.072.046-.1611.0708l.5363 1.9268c.2897-.0807.5681-.2069.8174-.3921l-1.1926-1.6055Zm-.1611.0708c-.0874.0243-.2071.0425-.3676.0425v2c.3082 0 .6123-.0346.9039-.1157l-.5363-1.9268Zm-.3676.0425c-.1234 0-.2448-.0158-.3664-.0483l-.5153 1.9325c.2886.077.5832.1158.8817.1158v-2Zm-.3578-.0459c-.1061-.0293-.1928-.0703-.2667-.1201l-1.1183 1.6582c.2621.1767.5484.3057.8525.3897l.5325-1.9278Zm-.2622-.117c-.0391-.0267-.0673-.0571-.092-.1006l-1.7401.986c.1746.308.4119.5667.7048.7666l1.1273-1.652Zm-.092-.1006c-.001-.0018-.0052-.0094-.0096-.0277-.0046-.0191-.0099-.0522-.0099-.1033h-2c0 .3803.0798.7648.2794 1.117l1.7401-.986Zm-1.0195.869h.8819v-2h-.8819v2Zm-.1181-1c0 .2304.0349.4905.1485.7448l1.826-.8159c.0162.0362.0224.0632.0246.0753.0021.0118.0009.0114.0009-.0042h-2Zm.1485.7448c.1038.2323.262.4439.4792.6097l1.2133-1.5899c.0688.0525.1117.1156.1335.1643l-1.826.8159Zm.4891.6172c.1957.1455.4109.2385.6281.2918l.4764-1.9424c.0101.0025.0457.0135.0889.0457l-1.1934 1.6049Zm.6322.2928c.1927.0464.3876.0659.5798.0659v-2c-.0579 0-.0934-.0059-.1117-.0103l-.4681 1.9444Zm.5798.0659c.2361 0 .511-.0318.7777-.1492l-.8055-1.8306c.0383-.0168.0632-.0213.0664-.0219.0033-.0005-.0083.0017-.0386.0017v2Zm.7711-.1463c.2475-.1067.4995-.2871.6753-.5728l-1.7034-1.0482c.0821-.1333.1876-.1946.2359-.2154l.7922 1.8364Zm.6655-.5572c.1581-.2467.2313-.5221.2313-.7975h-2c0-.084.0244-.1875.0849-.2819l1.6838 1.0794Zm2.6151-3.9469h1v-1h-1v1Zm0 4.2656v1h1v-1h-1Zm-.8759 0h-1v1h1v-1Zm0-4.2656v-1h-1v1h1Zm2.1884 0h1v-1h-1v1Zm0 .6885v1h1v-1h-1Zm-3.4804 0h-1v1h1v-1Zm0-.6885v-1h-1v1h1Zm1.1679 0v4.2656h2v-4.2656h-2Zm1 3.2656h-.8759v2h.8759v-2Zm.1241 1v-4.2656h-2v4.2656h2Zm-1-3.2656h.8759v-2h-.8759v2Zm1.1884-1v.6885h2v-.6885h-2Zm1-.3115h-3.4804v2h3.4804v-2Zm-2.4804 1v-.6885h-2v.6885h2Zm-1 .3115h3.4804v-2h-3.4804v2Zm6.8437 2.5801h1v-1h-1v1Zm0 .6855v1h1v-1h-1Zm-2.2705 0h-1v1h1v-1Zm0-.6855v-1h-1v1h1Zm.2871-3.5801h1v-1h-1v1Zm0 4.2656v1h1v-1h-1Zm-.8789 0h-1v1h1v-1Zm0-4.2656v-1h-1v1h1Zm2.5664 1.7373h1v-1h-1v1Zm0 .668v1h1v-1h-1Zm-1.9746 0h-1v1h1v-1Zm0-.668v-1h-1v1h1Zm2.2676-1.7373h1v-1h-1v1Zm0 .6885v1h1v-1h-1Zm-2.2676 0h-1v1h1v-1Zm0-.6885v-1h-1v1h1Zm1.2705 3.5801v.6855h2v-.6855h-2Zm1-.3145h-2.2705v2h2.2705v-2Zm-1.2705 1v-.6855h-2v.6855h2Zm-1 .3145h2.2705v-2h-2.2705v2Zm-.7129-4.5801v4.2656h2v-4.2656h-2Zm1 3.2656h-.8789v2h.8789v-2Zm.1211 1v-4.2656h-2v4.2656h2Zm-1-3.2656h.8789v-2h-.8789v2Zm1.5664.7373v.668h2v-.668h-2Zm1-.332h-1.9746v2h1.9746v-2Zm-.9746 1v-.668h-2v.668h2Zm-1 .332h1.9746v-2h-1.9746v2Zm1.2676-2.7373v.6885h2v-.6885h-2Zm1-.3115h-2.2676v2h2.2676v-2Zm-1.2676 1v-.6885h-2v.6885h2Zm-1 .3115h2.2676v-2h-2.2676v2Zm2.7832-1v-1h-1v1h1Zm2.4317.1465-.3847.923.0028.0012.3819-.9242Zm.6181 1.7285-.9029-.43-.0021.0047.905.4253Zm-.3252.4072.6124.7906.0016-.0012-.614-.7894Zm-.4892.2578-.3251-.9457-.0727.025-.068.0358.4658.8849Zm-.2784.1465v1h.2471l.2187-.1151-.4658-.8849Zm-1.3828 0-.9999.0086.0084.9914h.9915v-1Zm-.0058-.6855v-1h-1.0086l.0086 1.0085 1-.0085Zm1.6406-.3106-.8799-.4751-.0037.0068-.0036.007.8872.4613Zm-1.3301-1.0019v-1h-1v1h1Zm0 3.5771v1h1v-1h-1Zm-.8789 0h-1v1h1v-1Zm2.3848 0-.8903.4554.2786.5446h.6117v-1Zm-.9727-1.9014-.0063-.9999-1.6232.0102.7392 1.4452.8903-.4555Zm.9287-.0058.8845-.4666-.2834-.5372-.6074.0038.0063 1Zm.9844 1.8662h1v-.2476l-.1155-.219-.8845.4666Zm0 .041v1h1v-1h-1Zm-3.3252-3.2656h1.5908v-2h-1.5908v2Zm1.5908 0c.2302 0 .3731.0349.4562.0695l.7693-1.8461c-.3856-.1607-.8032-.2234-1.2255-.2234v2Zm.459.0707c.0738.0305.0889.0553.0934.0621l1.6667-1.1055c-.2493-.3759-.5976-.6403-.9963-.805l-.7638 1.8484Zm.0934.0621c.0004.0006.0053.0076.0107.0277.0058.0215.0131.0614.0131.1256h2c0-.433-.0999-.8711-.3571-1.2588l-1.6667 1.1055Zm.0238.1533c0 .0578-.005.0979-.0101.1234-.005.0251-.0099.0354-.0099.0356l1.8057.8598c.1563-.3283.2143-.6787.2143-1.0188h-2Zm-.0222.1636c-.0096.0203-.0186.0311-.0341.0432l1.2279 1.5787c.2657-.2067.4735-.4674.6163-.7713l-1.8101-.8506Zm-.0326.042c-.0415.0322-.1047.0692-.2019.1026l.6501 1.8914c.2778-.0955.5408-.2303.7766-.4129l-1.2248-1.5811Zm-.3426.1634-.2783.1465.9315 1.7698.2783-.1465-.9315-1.7698Zm.1874.0314h-1.3828v2h1.3828v-2Zm-.3828.9915-.0059-.6856-1.9999.0171.0059.6856 1.9999-.0171Zm-1.0058.323h1.0283v-2h-1.0283v2Zm1.0283 0c.2661 0 .5697-.0464.8579-.2016l-.9482-1.7609c.085-.0458.1328-.0375.0903-.0375v2Zm.8579-.2016c.2692-.145.4937-.3632.6416-.6476l-1.7744-.9227a.47118.47118 0 0 1 .0849-.1154c.0354-.0355.0708-.0597.0997-.0752l.9482 1.7609Zm.6343-.6338c.1434-.2657.1992-.5472.1992-.815h-2c0-.0101.003-.065.041-.1353l1.7598.9503Zm.1992-.815c0-.26-.0485-.5405-.1853-.8087l-1.7818.9084c-.0351-.069-.0329-.1132-.0329-.0997h2Zm-.1853-.8087c-.1506-.2954-.3846-.5208-.6684-.6654l-.9078 1.7821c-.0334-.017-.0736-.0436-.1132-.0828-.0399-.0394-.0707-.083-.0924-.1255l1.7818-.9084Zm-.6684-.6654c-.284-.1447-.5815-.188-.8436-.188v2c.0229 0 .0266.002.0157-.0003-.0115-.0023-.0407-.0096-.0799-.0296l.9078-1.7821Zm-.8436-.188h-.7119v2h.7119v-2Zm-1.7119 1v3.5771h2v-3.5771h-2Zm1 2.5771h-.8789v2h.8789v-2Zm.1211 1v-4.2656h-2v4.2656h2Zm2.2751-.4554-.9727-1.9014-1.7806.9109.9727 1.9013 1.7806-.9108Zm-1.8567-.446.9287-.0058-.0126-2-.9287.0059.0126 1.9999Zm.0379-.5393.9844 1.8662 1.769-.9331-.9844-1.8662-1.769.9331Zm.8689 1.3997v.041h2v-.041h-2Zm1-.959h-.9404v2h.9404v-2Zm2.5869-.5205h-1v1h1v-1Zm0-.6855v-1h-1v1h1Zm1.4971-.0821.4603.8878.0064-.0034.0064-.0034-.4731-.881Zm-1.1924-1.289v-1h-1v1h1Zm0 3.5771v1h1v-1h-1Zm-.8789 0h-1v1h1v-1Zm0-4.2656v-1h-1v1h1Zm2.5195.1816-.453.8916.0087.0043.4443-.8959Zm0 2.3994-.4143-.9101-.0028.0013.4171.9088Zm-.8584-.8359H47.986v2h1.0869v-2Zm-.0869 1v-.6855h-2v.6855h2Zm-1 .3145h1.0869v-2H47.986v2Zm1.0869 0c.266 0 .5763-.0418.8705-.1943l-.9206-1.7755c.0435-.0226.0744-.0297.0825-.0313.0078-.0016-.0013.0011-.0324.0011v2Zm.8833-.2011c.2743-.1473.508-.3727.6563-.6752l-1.7959-.8803c.0226-.0462.0538-.0906.0919-.1292.0376-.0381.0742-.0626.1015-.0773l.9462 1.762Zm.6563-.6752c.124-.2531.1753-.519.1753-.7771h-2c0-.0027.0003-.015.0045-.0344.0043-.0198.012-.0436.0243-.0688l1.7959.8803Zm.1753-.7771c0-.2588-.0506-.5169-.1601-.7621l-1.8263.8153a.16629.16629 0 0 1-.0112-.0347c-.0023-.0108-.0024-.0175-.0024-.0185h2Zm-.1601-.7621c-.1329-.2976-.3461-.535-.6118-.7023l-1.0656 1.6925c-.0234-.0147-.0528-.0378-.0818-.0708-.0292-.0333-.0516-.0694-.0671-.1041l1.8263-.8153Zm-.6118-.7023c-.3115-.1961-.6501-.2533-.943-.2533v2c.0431 0-.0221.0091-.1226-.0542l1.0656-1.6925Zm-.943-.2533h-.7822v2h.7822v-2Zm-1.7822 1v3.5771h2v-3.5771h-2Zm1 2.5771h-.8789v2h.8789v-2Zm.1211 1v-4.2656h-2v4.2656h2Zm-1-3.2656h1.6611v-2h-1.6611v2Zm1.6611 0c.215 0 .3381.0389.4054.0731l.9061-1.783c-.4093-.208-.8585-.2901-1.3115-.2901v2Zm.4141.0775c.0852.0422.1185.082.1383.1149l1.7136-1.0313c-.2341-.389-.5679-.6793-.9633-.8754l-.8886 1.7918Zm.1383.1149c.0238.0396.0472.099.0472.208h2c0-.434-.1035-.857-.3336-1.2393l-1.7136 1.0313Zm.0472.208c0 .1169-.025.1636-.0361.1811l1.6914 1.0674c.2428-.3848.3447-.8146.3447-1.2485h-2Zm-.0361.1811c-.0117.0186-.0364.0516-.1194.0894l.8287 1.8203c.3974-.181.7399-.4585.9821-.8423l-1.6914-1.0674Zm-.1222.0907c-.0768.0352-.2132.0729-.4413.0729v2c.4399 0 .8758-.0717 1.2756-.2552l-.8343-1.8177Zm4.6271 1.9079h1v-1h-1v1Zm0 .6855v1h1v-1h-1Zm-2.2705 0h-1v1h1v-1Zm0-.6855v-1h-1v1h1Zm.2871-3.5801h1v-1h-1v1Zm0 4.2656v1h1v-1h-1Zm-.8789 0h-1v1h1v-1Zm0-4.2656v-1h-1v1h1Zm2.5664 1.7373h1v-1h-1v1Zm0 .668v1h1v-1h-1Zm-1.9746 0h-1v1h1v-1Zm0-.668v-1h-1v1h1Zm2.2676-1.7373h1v-1h-1v1Zm0 .6885v1h1v-1h-1Zm-2.2676 0h-1v1h1v-1Zm0-.6885v-1h-1v1h1Zm1.2705 3.5801v.6855h2v-.6855h-2Zm1-.3145h-2.2705v2h2.2705v-2Zm-1.2705 1v-.6855h-2v.6855h2Zm-1 .3145h2.2705v-2h-2.2705v2Zm-.7129-4.5801v4.2656h2v-4.2656h-2Zm1 3.2656h-.8789v2h.8789v-2Zm.1211 1v-4.2656h-2v4.2656h2Zm-1-3.2656h.8789v-2h-.8789v2Zm1.5664.7373v.668h2v-.668h-2Zm1-.332h-1.9746v2h1.9746v-2Zm-.9746 1v-.668h-2v.668h2Zm-1 .332h1.9746v-2h-1.9746v2Zm1.2676-2.7373v.6885h2v-.6885h-2Zm1-.3115h-2.2676v2h2.2676v-2Zm-1.2676 1v-.6885h-2v.6885h2Zm-1 .3115h2.2676v-2h-2.2676v2Zm4.749-1h1v-1h-1v1Zm0 4.2656v1h1v-1h-1Zm-.876 0h-1v1h1v-1Zm0-4.2656v-1h-1v1h1Zm2.1885 0h1v-1h-1v1Zm0 .6885v1h1v-1h-1Zm-3.4805 0h-1v1h1v-1Zm0-.6885v-1h-1v1h1Zm1.168 0v4.2656h2v-4.2656h-2Zm1 3.2656h-.876v2h.876v-2Zm.124 1v-4.2656h-2v4.2656h2Zm-1-3.2656h.876v-2h-.876v2Zm1.1885-1v.6885h2v-.6885h-2Zm1-.3115h-3.4805v2h3.4805v-2Zm-2.4805 1v-.6885h-2v.6885h2Zm-1 .3115h3.4805v-2h-3.4805v2Zm6.8438 2.5801h1v-1h-1v1Zm0 .6855v1h1v-1h-1Zm-2.2705 0h-1v1h1v-1Zm0-.6855v-1h-1v1h1Zm.2871-3.5801h1v-1h-1v1Zm0 4.2656v1h1v-1h-1Zm-.8789 0h-1v1h1v-1Zm0-4.2656v-1h-1v1h1Zm2.5664 1.7373h1v-1h-1v1Zm0 .668v1h1v-1h-1Zm-1.9746 0h-1v1h1v-1Zm0-.668v-1h-1v1h1Zm2.2676-1.7373h1v-1h-1v1Zm0 .6885v1h1v-1h-1Zm-2.2676 0h-1v1h1v-1Zm0-.6885v-1h-1v1h1Zm1.2705 3.5801v.6855h2v-.6855h-2Zm1-.3145h-2.2705v2h2.2705v-2Zm-1.2705 1v-.6855h-2v.6855h2Zm-1 .3145h2.2705v-2h-2.2705v2Zm-.7129-4.5801v4.2656h2v-4.2656h-2Zm1 3.2656h-.8789v2h.8789v-2Zm.1211 1v-4.2656h-2v4.2656h2Zm-1-3.2656h.8789v-2h-.8789v2Zm1.5664.7373v.668h2v-.668h-2Zm1-.332h-1.9746v2h1.9746v-2Zm-.9746 1v-.668h-2v.668h2Zm-1 .332h1.9746v-2h-1.9746v2Zm1.2676-2.7373v.6885h2v-.6885h-2Zm1-.3115h-2.2676v2h2.2676v-2Zm-1.2676 1v-.6885h-2v.6885h2Zm-1 .3115h2.2676v-2h-2.2676v2Zm2.7832-1v-1h-1v1h1Zm2.4316.1465-.3846.923.0027.0012.3819-.9242Zm.6182 1.7285-.9029-.43-.0022.0047.9051.4253Zm-.3252.4072.6124.7906.0015-.0012-.6139-.7894Zm-.4893.2578-.325-.9457-.0727.025-.068.0358.4657.8849Zm-.2783.1465v1h.2471l.2187-.1151-.4658-.8849Zm-1.3828 0-1 .0086.0085.9914h.9915v-1Zm-.0059-.6855v-1h-1.0085l.0086 1.0085.9999-.0085Zm1.6407-.3106-.8799-.4751-.0037.0068-.0036.007.8872.4613Zm-1.3301-1.0019v-1h-1v1h1Zm0 3.5771v1h1v-1h-1Zm-.8789 0h-1v1h1v-1Zm2.3848 0-.8903.4554.2786.5446h.6117v-1Zm-.9727-1.9014-.0063-.9999-1.6233.0102.7393 1.4452.8903-.4555Zm.9287-.0058.8845-.4666-.2834-.5372-.6074.0038.0063 1Zm.9844 1.8662h1v-.2476l-.1155-.219-.8845.4666Zm0 .041v1h1v-1h-1Zm-3.3252-3.2656h1.5908v-2h-1.5908v2Zm1.5908 0c.2301 0 .373.0349.4562.0695l.7692-1.8461c-.3855-.1607-.8032-.2234-1.2254-.2234v2Zm.4589.0707c.0739.0305.089.0553.0935.0621l1.6667-1.1055c-.2494-.3759-.5976-.6403-.9964-.805l-.7638 1.8484Zm.0935.0621c.0004.0006.0052.0076.0107.0277.0058.0215.0131.0614.0131.1256h2c0-.433-.0999-.8711-.3571-1.2588l-1.6667 1.1055Zm.0238.1533c0 .0578-.005.0979-.0101.1234-.005.0251-.0099.0354-.01.0356l1.8058.8598c.1563-.3283.2143-.6787.2143-1.0188h-2Zm-.0223.1636c-.0095.0203-.0185.0311-.034.0432l1.2278 1.5787c.2657-.2067.4736-.4674.6164-.7713l-1.8102-.8506Zm-.0325.042c-.0416.0322-.1047.0692-.2019.1026l.6501 1.8914c.2778-.0955.5408-.2303.7766-.4129l-1.2248-1.5811Zm-.3426.1634-.2783.1465.9315 1.7698.2783-.1465-.9315-1.7698Zm.1874.0314h-1.3828v2h1.3828v-2Zm-.3828.9915-.0059-.6856-1.9999.0171.0058.6856 2-.0171Zm-1.0059.323h1.0284v-2h-1.0284v2Zm1.0284 0c.2661 0 .5697-.0464.8579-.2016l-.9482-1.7609c.085-.0458.1327-.0375.0903-.0375v2Zm.8579-.2016c.2692-.145.4937-.3632.6416-.6476l-1.7744-.9227a.47118.47118 0 0 1 .0849-.1154c.0354-.0355.0708-.0597.0997-.0752l.9482 1.7609Zm.6343-.6338c.1434-.2657.1992-.5472.1992-.815h-2c0-.0101.003-.065.041-.1353l1.7598.9503Zm.1992-.815c0-.26-.0486-.5405-.1853-.8087l-1.7818.9084c-.0352-.069-.0329-.1132-.0329-.0997h2Zm-.1853-.8087c-.1506-.2954-.3846-.5208-.6684-.6654l-.9079 1.7821c-.0333-.017-.0735-.0436-.1131-.0828-.04-.0394-.0707-.083-.0924-.1255l1.7818-.9084Zm-.6684-.6654c-.2841-.1447-.5815-.188-.8436-.188v2c.0228 0 .0266.002.0157-.0003-.0115-.0023-.0408-.0096-.08-.0296l.9079-1.7821Zm-.8436-.188h-.7119v2h.7119v-2Zm-1.7119 1v3.5771h2v-3.5771h-2Zm1 2.5771h-.8789v2h.8789v-2Zm.1211 1v-4.2656h-2v4.2656h2Zm2.275-.4554-.9726-1.9014-1.7806.9109.9727 1.9013 1.7805-.9108Zm-1.8566-.446.9287-.0058-.0126-2-.9287.0059.0126 1.9999Zm.0379-.5393.9844 1.8662 1.769-.9331-.9844-1.8662-1.769.9331Zm.8689 1.3997v.041h2v-.041h-2Zm1-.959h-.9404v2h.9404v-2Zm2.7041-.3213-.9457.3251.0062.0181.0069.0178.9326-.361Zm-.1231-.1699-.6567.7541.007.0061.0071.006.6426-.7662Zm-.6796-.3135-.3076.9516.0074.0023.3002-.9539Zm-.5508-.2109-.4138.9104.0038.0017.41-.9121Zm-.4571-.2725-.6275.7786.0064.0051.0064.0051.6147-.7888Zm-.3105-.3662-.8817.4719.0052.0096.8765-.4815Zm.0059-.9668.8797.4755.0026-.0049-.8823-.4706Zm.3281-.375.5928.8054.0072-.0054-.6-.8Zm.498-.2431-.2811-.9597-.0026.0008.2837.9589Zm2.0039.5507-.8371.5471.0038.0057.8333-.5528Zm.1963.6768v1h1v-1h-1Zm-.873 0h-1v1h1v-1Zm-.0791-.3281-.8834.4687.0058.0108.006.0107.8716-.4902Zm-.2344-.2256-.4671.8842.0068.0035.4603-.8877Zm-.7734-.0117.4045.9145.0073-.0032.0072-.0034-.419-.9079Zm-.2286.1845.8321.5548.0064-.0098-.8385-.545Zm-.0234.4541-.8575.5145.0062.0104.0065.0102.8448-.5351Zm.7969.4395-.296.9552.0064.0019.2896-.9571Zm.6123.2373-.4472.8944.0039.002.4433-.8964Zm-1.3653 2.2383-.2662.9639.0086.0023.2576-.9662Zm-.5595-.2549-.5637.826.0045.0031.5592-.8291Zm-.5479-1.0576v-1h-1v1h1Zm.8819 0h1v-1h-1v1Zm.2343.5595-.6067.7951.01.0074.5967-.8025Zm.2696.1231-.2383.9712.0042.001.2341-.9722Zm.7207-.0264-.3961-.9182-.0067.0029.4028.9153Zm.2197-.1787-.8419-.5397-.0049.0078-.0049.0078.8517.5241Zm1.0732-.2578c0-.1786-.0275-.3723-.1025-.5661l-1.8652.722c-.0281-.0727-.0323-.1296-.0323-.1559h2Zm-.0894-.5302c-.0912-.2652-.2538-.4664-.4261-.611l-1.2853 1.5324c-.0512-.043-.1318-.1309-.18-.2712l1.8914-.6502Zm-.412-.5989c-.1575-.1372-.334-.2355-.4905-.3082l-.8423 1.814c.0135.0063.024.0115.0319.0157.008.0042.0128.007.0147.0082.0021.0013.0005.0004-.0038-.0027-.0044-.0031-.0126-.0093-.0235-.0188l1.3135-1.5082Zm-.4905-.3082c-.1631-.0757-.3493-.1432-.5458-.2051l-.6003 1.9078c.1512.0476.2482.0855.3038.1113l.8423-1.814Zm-.5384-.2027c-.1608-.052-.3101-.1094-.4484-.1715l-.8199 1.8242c.2093.0941.4273.1773.6532.2503l.6151-1.903Zm-.4445-.1698c-.1089-.0495-.1922-.101-.2561-.1508l-1.2295 1.5775c.2017.1572.4231.2873.658.3941l.8276-1.8208Zm-.2433-.1407c-.0357-.0287-.0521-.0517-.0616-.069l-1.753.9629c.1428.26.3335.4812.5595.6633l1.2551-1.5572Zm-.0564-.0595c.0031.006.0054.0113.007.0156.0016.0042.0022.0068.0023.007.0001.0006-.0023-.0096-.0023-.0341h-2c0 .3206.0657.6489.2296.9553l1.7634-.9438Zm.007-.0115c0-.0152.0016-.0204.0011-.0185-.0002.0007-.0006.0024-.0015.0046a.05842.05842 0 0 1-.0027.006l-1.7595-.951c-.1634.3024-.2374.6291-.2374.9589h2Zm-.0005-.0128c.0042-.0078.0119-.0206.0386-.0402l-1.1856-1.6107c-.2546.1873-.4656.4246-.6177.7097l1.7647.9412Zm.0458-.0456c.0335-.0251.0891-.0568.1818-.0843l-.5675-1.9177c-.2902.0858-.5666.2162-.8143.402l1.2 1.6Zm.1791-.0835c.0901-.0263.2059-.0446.3547-.0446v-2c-.3123 0-.6202.0384-.9169.1253l.5622 1.9193Zm.3547-.0446c.1946 0 .3147.0348.388.0703l.8704-1.8007c-.3954-.1911-.8242-.2696-1.2584-.2696v2Zm.388.0703c.0885.0427.1237.0829.143.1125l1.6742-1.0941c-.2385-.365-.5665-.6353-.9468-.8191l-.8704 1.8007Zm.1468.1182c.0142.0214.0296.0518.0296.124h2c0-.4356-.1154-.8564-.363-1.2296l-1.6666 1.1056Zm1.0296-.876h-.873v2h.873v-2Zm.127 1c0-.2687-.0579-.5523-.2076-.8184l-1.7431.9805c-.0442-.0786-.0493-.1435-.0493-.1621h2Zm-.1958-.7969c-.1551-.2924-.3898-.5059-.6574-.6446l-.9206 1.7755c-.0245-.0127-.059-.0347-.0955-.0698a.4967.4967 0 0 1-.0932-.1236l1.7667-.9375Zm-.6506-.641c-.2891-.1527-.5933-.1979-.8597-.1979v2c.0225 0 .025.0021.0123-.0006-.0134-.0028-.0452-.0111-.0868-.0331l.9342-1.7684Zm-.8597-.1979c-.2476 0-.5285.0371-.7999.1624l.8381 1.8159c-.0355.0164-.0599.0216-.0661.0227-.006.0011.0021-.001.0279-.001v-2Zm-.7853.1558c-.2445.1081-.4871.2843-.6625.5541l1.6769 1.09c-.0738.1136-.1641.1667-.2054.185l-.809-1.8291Zm-.6561.5444c-.1654.2482-.2441.5289-.2441.8125h2c0 .0416-.0057.0921-.022.1472a.55105.55105 0 0 1-.0698.1497l-1.6641-1.1094Zm-.2441.8125c0 .2427.0614.4878.1952.7108l1.715-1.029c.0635.1059.0898.2201.0898.3182h-2Zm.2079.7314c.1239.1957.2822.3406.4339.4472l1.1499-1.6364c.0072.005.0561.0406.1058.1191l-1.6896 1.0701Zm.4339.4472c.1436.1009.2977.1807.4497.2454l.7837-1.8401c-.0284-.0121-.0492-.0223-.0635-.03-.0144-.0078-.0204-.012-.02-.0117l-1.1499 1.6364Zm.4497.2454c.1438.0612.299.1164.4621.167l.592-1.9104c-.1143-.0354-.2032-.0681-.2704-.0967l-.7837 1.8401Zm.4685.1689c.1903.0576.3397.1172.4547.1746l.8944-1.7888c-.2366-.1184-.4954-.217-.77-.3001l-.5791 1.9143Zm.4586.1766c.1113.055.1765.1033.2123.1361l1.3526-1.4733c-.2025-.1859-.4341-.3348-.6783-.4556l-.8866 1.7928Zm.2123.1361c.0237.0218.0283.0332.0294.0356l1.8329-.8003c-.1201-.275-.2951-.5116-.5097-.7086l-1.3526 1.4733Zm.0294.0356c-.0028-.0063.0072.0114.0072.0715h2c0-.2914-.0505-.5881-.1743-.8718l-1.8329.8003Zm.0072.0715c0 .0278-.0026.044-.0042.051-.0014.0067-.0023.0073-.001.0047l1.7937.8848c.1488-.3017.2115-.6224.2115-.9405h-2Zm-.0052.0557c-.0004.001-.0006.0012-.0005.001.0001-.0002.0002-.0002 0-.0001a.01652.01652 0 0 1-.0027.0028.10432.10432 0 0 1-.0098.008l1.1927 1.6055c.2584-.192.4685-.4375.614-.7324l-1.7937-.8848Zm-.013.0117c-.0241.0179-.0719.046-.161.0708l.5363 1.9268c.2897-.0807.5681-.2069.8174-.3921l-1.1927-1.6055Zm-.161.0708c-.0874.0243-.2071.0425-.3676.0425v2c.3082 0 .6123-.0346.9039-.1157l-.5363-1.9268Zm-.3676.0425c-.1234 0-.2448-.0158-.3664-.0483l-.5153 1.9325c.2886.077.5832.1158.8817.1158v-2Zm-.3578-.0459c-.1061-.0293-.1928-.0703-.2667-.1201l-1.1183 1.6582c.2621.1767.5484.3057.8525.3897l.5325-1.9278Zm-.2622-.117c-.0391-.0267-.0674-.0571-.092-.1006l-1.7401.986c.1746.308.4119.5667.7048.7666l1.1273-1.652Zm-.092-.1006c-.001-.0018-.0052-.0094-.0096-.0277-.0046-.0191-.0099-.0522-.0099-.1033h-2c0 .3803.0798.7648.2794 1.117l1.7401-.986Zm-1.0195.869h.8819v-2h-.8819v2Zm-.1181-1c0 .2304.0349.4905.1485.7448l1.826-.8159c.0162.0362.0224.0632.0246.0753.0021.0118.0009.0114.0009-.0042h-2Zm.1485.7448c.1038.2323.262.4439.4792.6097l1.2133-1.5899c.0688.0525.1117.1156.1335.1643l-1.826.8159Zm.4891.6172c.1956.1455.4109.2385.628.2918l.4765-1.9424c.0101.0025.0457.0135.0889.0457l-1.1934 1.6049Zm.6322.2928c.1927.0464.3876.0659.5798.0659v-2c-.0579 0-.0934-.0059-.1117-.0103l-.4681 1.9444Zm.5798.0659c.2361 0 .511-.0318.7777-.1492l-.8055-1.8306c.0383-.0168.0632-.0213.0664-.0219.0033-.0005-.0083.0017-.0386.0017v2Zm.7711-.1463c.2475-.1067.4995-.2871.6753-.5728l-1.7034-1.0482c.0821-.1333.1876-.1946.2359-.2154l.7922 1.8364Zm.6655-.5572c.1581-.2467.2313-.5221.2313-.7975h-2c0-.084.0244-.1875.0849-.2819l1.6838 1.0794Z" fill="#AFB1B8"/></svg>